<?xml version="1.0" encoding="UTF-8"?>
<!DOCTYPE svg PUBLIC "-//W3C//DTD SVG 1.1//EN" "http://www.w3.org/Graphics/SVG/1.1/DTD/svg11.dtd">
<!-- Creator: CorelDRAW -->
<svg xmlns="http://www.w3.org/2000/svg" xml:space="preserve" width="8.4666mm" height="8.4666mm" version="1.1" style="shape-rendering:geometricPrecision; text-rendering:geometricPrecision; image-rendering:optimizeQuality; fill-rule:evenodd; clip-rule:evenodd"
viewBox="0 0 846.66 846.66"
 xmlns:xlink="http://www.w3.org/1999/xlink"
 xmlns:xodm="http://www.corel.com/coreldraw/odm/2003">
 <defs>
  <style type="text/css">
   <![CDATA[
    .fil0 {fill:#64732F}
   ]]>
  </style>
 </defs>
 <g id="Camada_x0020_1">
  <metadata id="CorelCorpID_0Corel-Layer"/>
  <path class="fil0" d="M690.43 435.6c-8.71,-16.53 -5.74,-26.59 -15.63,-49.32l-19.85 -45.3c-6.29,-11.59 -21.95,-57.89 -24.66,-74.78l-4.51 -27.8c-0.05,-0.24 -0.1,-0.6 -0.15,-0.84 -0.04,-0.24 -0.09,-0.6 -0.13,-0.84 -0.04,-0.25 -0.1,-0.6 -0.14,-0.85 -1.8,-10.3 -3.08,-35.75 -3.94,-47.8l-0.23 -51.34c-4.95,21.06 -7.53,32.61 -10.98,53.26 -11.1,66.33 -6.76,118.91 11.45,160.31 8.68,19.73 13.42,26 23.95,41.4l18.49 25.2c2.93,3.39 7.1,8.91 10.74,11.18 -1.77,-11.16 -19.29,-39.97 -24.22,-48.94l-31.87 -51.37c-4.7,-7.89 -0.6,-12.46 1.75,-8.61 0.64,1.05 1.28,2.4 2.24,3.84 2.03,3.04 2.87,5 4.92,7.97 3.35,4.86 6.12,9.69 9.76,15.02l28.36 45.96c3.02,5.2 6.03,10.26 8.56,16.17 2.47,5.74 5.44,11.26 7.33,17.34 0.67,2.17 1.02,2.86 1.76,5.14 2.66,8.23 1.56,6.73 8.37,9.54l-1.37 -4.54zm-222.73 152.7c-6.05,-2.49 -9.81,-2.82 -15.51,-4.76 -18.38,-6.23 -52.64,-4.89 -72.68,-3.11 -9.77,0.87 -18.93,-0.17 -28.63,0.4 1.15,3.76 16.28,19.94 18.09,21.71 26.54,25.81 52.51,31.65 91.01,16.45 1.48,-0.58 2.29,-0.55 3.98,-1.16 1.34,-0.48 0.87,-0.26 1.96,-0.88 1.23,-0.71 1.09,-0.83 1.89,-1.51 -3.16,-0.72 -6.66,0.53 -9.47,0.87l-60.82 -0.69c-3.3,0.29 -1.18,2.56 -3.94,1.42 -4.22,-1.73 2.02,-8.75 2.98,-10.61 11.52,4.74 57.3,2.64 71.01,0.22l24.23 -3.35c-3.69,-1.52 -10.62,-9.45 -24.1,-15zm-174.71 196.23c-4.1,7.32 -16.58,34.48 -14.68,42.45 7.34,-14.88 1.9,1.57 12.71,-28.64l11.1 -31 -9.13 17.19zm2.79 -45.2c-9.78,-4.03 -20.96,-9.89 -31.16,-10.78 -3,-0.26 -6.46,0.64 -9.47,0.82 0.24,0.94 0.04,0.97 0.71,2.25l8.58 8.37c3.77,1.55 26.32,5.38 31.34,-0.66zm189.86 -335.42c-2.31,-22.07 -3.57,-23.33 -5.14,-35.96l-6.17 -34.98c-2.37,-10.32 -2.88,-14.96 -6.4,-25.04 -5.06,-14.55 -24.88,-30.16 -33.02,-38.6 -3.63,-3.76 -6.52,-6.96 -10,-10.91 -3.53,-3.99 -6.06,-7.81 -9.27,-11.6l-29.41 -52.75c-2.14,9.85 0.64,28.96 1.53,37.47 3.77,36.41 16.39,81.74 28.06,108.5 10.73,24.61 22.72,45.36 39.32,59.84l22.57 16.45c0.08,-14.76 -14.95,-42.6 -20.58,-55.32l-12.48 -26.04c-1.92,-4.44 -3.64,-8.36 -5.69,-13.08 -1.72,-3.95 -3.6,-10.46 -6.52,-12.27 1.74,-4.7 2.41,-7.46 4.78,-6.49l43.01 95.24c1.02,3.3 1.13,5.25 2.1,8.7 3.93,14.11 -0.29,12.73 5.56,15.14l-2.25 -18.3zm-260.92 53.85c-24.03,-9.9 -42.99,6 -90.14,-13.41 -0.03,6.37 4.58,11.91 6.75,16.93 14.11,32.48 49.99,41.73 77.26,42.41 4.03,0.1 33.43,0.51 38.52,-3.81 -2.85,-1.17 -3.84,-2.26 -5.8,-4.2 -7.62,-7.56 -11.62,-8.24 -16.98,-12.05 -2.17,-1.54 -2.41,-2.64 -5.95,-4.06 -5.69,-2.27 -14.98,-5.32 -18.74,-9.39 1.74,-4.7 2.4,-7.47 4.77,-6.49l30.33 15.87c6.67,4.02 12.16,11.78 19.29,14.72l0.53 -1.49c-1.47,-0.6 -5.62,-6.34 -6.83,-8.08 -13.45,-19.31 -14.31,-19.25 -33.01,-26.95zm-151.33 152.19c-3.3,1.16 -5.18,2.46 -8.4,4.54 -12.37,8 -38.9,42.17 -48.79,62.22 3.96,1.43 5.61,-0.59 9.22,-3.27l24.91 -22.86c11.42,-11.75 21.93,-27.76 32.37,-43.02l-9.31 2.39zm-41.97 -48.91c-5.2,-2.14 -14.68,-3.09 -19.23,-1.14 -0.02,4.64 0.08,3 2.1,5.79 1.47,2.03 1.38,1.77 3.34,3.63 18.58,17.71 46.67,12.45 54.48,15.26 0.02,-5.38 -1.39,-3.44 -4.61,-6.32l-36.08 -17.22zm226.72 -345.2c0.68,-21.37 0,-71.76 -3.94,-88.66l-3.05 -17.53c-1.85,-7.7 -3.68,-15.22 -5.79,-22.7 -1.02,-3.61 -2.08,-8.2 -3.26,-11.49l-11.62 -30.77c-2.82,-6.46 -5.73,-14.23 -9.93,-18.75 -2.1,9.6 -4.77,66.56 -3.74,78.46 0.33,3.81 -0.04,4.14 0.11,7.68l4.48 36.59c0.48,3.45 0.91,2.99 1.4,6.45l7.48 34.71c3.11,11.37 11.05,33.74 15.65,41.52 3.11,5.27 7.48,17.05 12.53,20.18 0.02,-4.7 -1.95,-9.38 -2.96,-13.73 -1.07,-4.61 -1.52,-9.79 -2.43,-14.23l-10.79 -71.43c-0.7,-7.23 -3,-9.35 -1.18,-14.44 4.67,-13.04 5.61,9.65 7.41,17.27 0.76,3.25 0.91,6.79 1.28,10.45 0.21,2.06 0.25,3.45 0.63,5.23l7.72 45.19zm-148.75 -71.43c-8.04,-1.81 -15.27,1.38 -24.02,5.35 -9.36,4.25 -18.83,9.63 -28.29,16.68l-11.35 9.01c-1.87,1.43 -3.63,3.34 -5.59,5.22 -10.45,9.94 -17.94,17.52 -23.25,32.35 8.53,21.11 41.21,0.63 58.59,-14.16 2.36,-2.01 0.18,0.08 2.49,-2.37 20.96,-22.12 13.23,-15.44 26.32,-35.55 -2.73,0.32 -1.12,-0.35 -3.81,2.78 -5.32,6.17 -17.04,16.34 -23.03,21.3l-6.92 5.63c-3.1,3 -3.49,2.73 -6.3,5.02 -5.43,4.45 -7.32,8.2 -13.17,11.08 0.09,-3.01 -0.5,-3.18 0.68,-6.48l18.4 -19.91c2.72,-2.65 2.9,-3.6 5.49,-6.26 2.95,-3.04 8.92,-8.86 11.82,-10.95 4.28,-3.07 8.05,-6.24 11.91,-11.21l2.23 2.82c2.81,-3.57 5.1,-5.1 7.8,-10.35zm-60.58 -57.11c-3.37,-1.39 -5.65,-2.67 -9.16,-2.75 -4.88,-0.11 -8.62,-5.51 -17.98,-2.24 -3.58,1.25 -5.14,2.33 -7.92,9.18 3.28,3.95 -0.51,6.8 14.57,19.21 1.85,1.52 4.09,1.59 5.92,3.12 7.55,6.31 5.22,2.71 10.95,4.14 1.88,0.47 3.83,1.94 5.71,2.41 3.08,0.77 8.59,0.77 11.75,1.46l35.27 4.33 -22.19 -22.66c-8.19,-5.77 -17.01,-12.13 -26.92,-16.2zm-2.03 -19.46c11.34,4.67 23.04,10.02 33.08,17.14l40.7 37.12c0.81,1.29 1.81,3.36 2.55,5.36 1.11,2.96 0.74,3.49 1.54,6.32 3.2,1.31 5.14,-0.36 7.88,2.18 4.58,4.25 12.21,5.98 21.3,14.79l62.37 59.3c2.41,2.37 3.78,4.06 5.88,6.06 2.44,2.32 3.8,4.92 6.71,6.27l-14.81 -56.91c-2.79,-11.58 -4.31,-25.23 -5.73,-38.33l-0.87 -19.59c0,-3.41 -0.26,-4.31 -0.25,-7.55 0.07,-23.44 2.18,-67.05 7.29,-93.52 2.02,-2.93 2.79,-3.95 4.78,-6.49 4.58,1.89 6.62,6.4 9.52,11.36 1.29,2.21 2.36,4.02 3.49,6.41 6.2,13.22 12.25,26.05 17.16,41.05l7 22.52c4.4,15.5 5.3,26.56 8.38,39.69 3,12.75 2.93,30.27 3.54,45.27l0.44 56.97c-0.02,2.25 -0.27,3.15 -0.39,5.23 -0.15,2.61 0.01,2.41 0.03,4.84 0.04,5.31 0.25,4.77 1.11,8.76 0.99,4.57 3.62,10.33 5.68,13.96l13.66 24.93c9.47,19.52 22.25,32.64 37.73,40.92 11.78,6.3 21.12,17.75 32.03,26.91l11.2 8.8c9.82,9.51 25.87,18.49 34.06,25.94 6.47,5.88 29.44,19.56 37.34,22.81l0.53 -1.48c-10.58,-4.36 -29.89,-44.18 -36.2,-58.92 -5.57,-12.99 -11.05,-27.88 -14.53,-43.56l-8.39 -38.71c-0.77,-3.21 -0.64,-5.07 -1.41,-8.38 -2.09,-8.98 -4.51,-23.09 -4.49,-33.66 0.01,-7.22 -0.57,-11.54 -0.36,-19.11 0.18,-6.86 0.52,-12.77 0.63,-19.09 0.17,-9.66 -0.63,-8.33 1.85,-21.21l4.26 -5.02c4.92,2.02 6.02,7.88 8.2,14.55 1.86,5.7 3.44,8.79 5.51,14.22l5.88 13.85c16.58,28.8 33.26,47.35 54.43,67.84 9.64,9.34 18.47,19.84 23.2,37.24 1.48,5.44 2.34,10.51 3.6,16.03 0.87,3.81 0.82,4.61 1.46,8.34l8.87 49.93c1.64,11.97 1.75,25.85 4.69,36.38 0.72,2.55 1.32,5.55 2.25,7.58 1.48,3.19 7.2,8.31 9.7,11.2 6.8,7.85 16.16,8.26 25.57,8.22 38.01,-0.17 74.92,2.79 112.51,5.46 8.94,0.63 20.23,-0.31 28.3,3.02l0.54 -1.49c-15.17,-6.24 -37.77,-38.99 -47.54,-54.93l-14 -24.61c-1.51,-3.07 -2.96,-5.3 -4.34,-8.52l-9.51 -28.88c-4.19,-19.91 -6.64,-33.01 -7.84,-55.77 -2.48,-46.92 6.78,-90.5 18.31,-143.89 2.49,-11.53 4.72,-20.44 9.78,-34.6 9.02,-5.86 7.79,-3.76 8.83,15.91 0.96,18.05 -1.74,39.23 -0.24,56.65 0.4,4.61 0.03,6.77 0.49,11.21 0.48,4.58 0.1,6.08 0.38,10.33 1.28,18.9 3.9,44.86 7.74,61.71 0.77,3.39 1.38,6.46 2.13,9.64l7.6 26.81c9.27,25.84 19.88,50.2 30.46,74.11 1.34,3.04 2.57,4.05 3.81,7.15 0.09,0.22 0.2,0.5 0.28,0.73 0.08,0.22 0.17,0.53 0.24,0.75l0.8 3.04c2.48,7.36 5.27,13.95 6.81,22.69 3.84,21.9 16.56,44.34 28.43,52.7 7.03,4.94 14.2,4.95 23.11,6.36 3.47,0.55 5.08,0.87 8.36,1.58l40.93 6.39c10.08,0.82 40.33,5.58 48.68,8.53 14.42,5.34 -3.8,14.08 -23.16,13.49 -4.84,-0.14 -9.05,-2.54 -13.94,-2.71l-28.4 -4.03c-13.42,-2.12 -26.85,-6.87 -41.42,-4.43 -13.74,2.3 -26.72,2.77 -40.86,7.41 -5.02,1.65 -8.49,3.2 -13.1,5.29l-65.54 39.05c-2.63,11.99 -7.42,15.86 -13.14,24.51 -2.61,3.94 -3.79,5.27 -5.96,8.29 -17.1,23.69 -27.83,48.4 -43.35,75.06l-24.92 42.44c-3.81,6.3 -9.52,13.47 -12.92,20.09 2.27,2.72 1.94,6.22 3.07,9.72 7.72,23.81 -0.31,41.11 -20.94,54.37 -7.4,4.75 -12.58,8.02 -19.95,4.98 -4.07,-1.67 -5.59,-6.02 -5.9,-11.89 -1.21,-23.53 17.5,-52.17 31.2,-59.5 4.67,-2.5 9.71,-11.18 13.87,-17.45 9.38,-14.11 17.93,-29.46 26.74,-44.67 28.3,-48.89 19.71,-41.48 53.92,-91.46 -2.73,0.32 -1.05,-0.04 -3.89,2.05l-59.95 46.84c-2,1.46 -2.38,2.15 -4.4,3.62 -2.11,1.55 -1.73,1.18 -3.79,2.92l-89.6 70.05c-26.07,18.86 -51.91,34.38 -77.92,51.21l-17.19 11.93c-5.55,4.09 -12.75,11.25 -17.9,11.55 -4.82,13.48 -6.79,18.48 -11.92,29.62 -8.99,19.46 -13.72,41.65 -24.48,59.74 -2.24,3.78 -4.15,6.27 -6.55,9.17 -14.18,17.12 -21.09,-13.48 12.09,-73.78 2.07,-3.75 4.4,-7.18 6.35,-11.13 -13.28,0.78 -22.57,5.94 -38.99,-0.82 -11.02,-4.54 -16.29,-12.17 -14.37,-33 5.25,-8.05 8.31,-10.47 17.21,-11.59 17,-2.15 33.24,11.26 49.21,13.64 10.96,1.64 1.87,9.63 17.04,-0.19 1.71,-1.1 2.95,-1.83 4.48,-2.87 8.25,-5.63 17.2,-13.23 25.44,-17.77 2.64,-1.45 2.05,-1.42 4.45,-3.15 3.4,-2.43 5.81,-3.7 8.99,-5.47 2.77,-1.54 5.35,-3.36 8.35,-5.03 2.84,-1.58 5.74,-3.68 8.95,-5.76 20.3,-13.14 49.3,-31.32 69.36,-48.33 -6.25,-1.41 -32.99,14.61 -58.21,4.76 -3.62,-1.41 -5.47,-0.42 -9.82,-2.25 -4.1,-1.73 -4.82,-3.75 -9.45,-5.6 -14.88,-5.94 -31.52,-29.74 -43.4,-43.3 -3.62,-4.13 -12.06,-9.76 -8.28,-20.33 1.14,-3.19 3.21,-5.82 4.76,-6.64 1.72,-0.91 3.95,-0.12 6.14,-0.03 4.39,0.18 7.58,0.61 11.67,0.61 7.53,-0.02 16.11,-0.05 23.2,-0.11 8.09,-0.08 14.85,-0.99 23.02,-1.73 16.25,-1.49 31.47,1.6 47.33,2.2 8.12,0.31 28.01,5.27 34.58,10.07 7.31,5.34 12.29,6.91 20.33,13.74 2.34,1.98 9.31,4.98 10.48,7.53 5.36,-6.42 15.89,-12.4 22.05,-17.59 2.35,-1.98 2.95,-2.1 5.06,-3.85 2.64,-2.18 2.65,-2.51 5.65,-4.68 14.99,-10.83 29.95,-24.44 44.8,-35.07 11.28,-8.07 22.33,-17.16 33.63,-24.43 3.94,-2.53 6.96,-4.24 10.87,-7.03 15.34,-10.91 30.59,-18.72 45.78,-25.62 3.67,-1.68 8.57,-4.9 11.85,-4.16l1.06 -2.96c-8.72,-3.6 -44.12,-5.15 -53.83,-5.63 -26.57,-1.32 -52.91,-3.74 -80.22,-3.48 -3.95,0.03 -8.64,1.52 -12.87,0.94 -4.48,-0.61 -9.69,-2.37 -13.9,-2.3 -6.38,0.1 -13.22,-3.03 -20,-2.03l-12.89 0.81c-10.2,0.84 -22.14,5.1 -32.6,8.04 -2.5,0.7 -4.01,0.87 -6.67,1.47l-12.68 2.81c-2.04,0.43 -4.18,0.95 -6.67,1.5 -12.28,2.74 -26.77,3.28 -39.16,10.58 -4.44,2.61 -7.85,4.94 -12.21,7.29 -15.38,8.3 -46.39,31.68 -62.03,46.56 -14.11,13.44 -29.04,25.75 -42.72,41.93 -2.63,3.12 -3.94,4.24 -6.09,6.98 -0.21,6.65 1.5,7.23 -2.25,17.7 -7.35,20.52 -25.62,35.17 -34.95,31.33 -10.08,-4.16 -5.52,-29.48 4.43,-42.6 3.81,-5.04 5.7,-5.68 9.14,-10.5 7.54,-10.58 11.12,-11.23 19.67,-7.71l10.42 -11.27c14.01,-16 28.96,-29.17 43.35,-42.4 2.72,-2.5 3.09,-2.09 5.69,-4.37 2.12,-1.85 3.51,-3.66 5.59,-5.25l5.68 -4.42c5.04,-3.87 12.73,-7.75 17.08,-12.98 -3.63,0.21 -6.77,1.66 -10.62,2.93l-106.26 34.7c-2.31,1.04 -3.58,1.85 -5.88,2.59l-33.5 12.49c-3.51,1.07 -7.24,2.77 -11.17,4.19 -1.87,0.68 -3.42,1.09 -5.28,1.67 -2.82,0.88 -3.38,1.27 -5.92,2.18l-44.62 17.22c-4.34,1.97 -6.81,3.31 -11.01,5.61 -3.7,2.02 -7.44,3.89 -10.93,6.5 -5.34,3.99 -11.21,4.4 -15.7,13.09 -10.5,20.32 -18.37,31.43 -29.84,47.49l-15.76 19.03c-6.31,6.85 -14.42,13.7 -21.11,20.11 -22.64,21.71 -32.77,10.35 -22.63,-13.86 4.45,-10.63 10.64,-18.47 16.4,-26.2l33.92 -41.26c-8.81,-3.17 -19.04,-1.07 -29.93,-5.55 -10.82,-4.45 -27.97,-9.53 -30.01,-28.82 -0.7,-6.58 -0.16,-6.35 1.53,-15.08 4.91,-7.15 6.04,-6.97 11.38,-8.63 11,-3.42 28.18,0.34 37.43,4.96l11.55 6.52c4.7,1.9 7.18,3.89 11.61,6.45 18.58,10.75 9.18,27.67 37.13,9.24 12.14,-8.01 24.19,-16.31 36.14,-19.9 3.08,-0.93 5.44,-2.23 9.2,-3.44l9.19 -3.46c3.17,-1.14 6.25,-2.38 9.19,-3.55l65.07 -24.01c-4.65,-1.67 -10.07,0.51 -14.97,0.5 -31.4,-0.09 -65.8,-3.83 -85.75,-34.96 -6.78,-10.57 -12.42,-22.39 -16.5,-36.82 -1.3,-4.64 -2.18,-9.91 -4.41,-13.32 -2.77,-4.25 -2.89,-8.13 -0.9,-16.64l5.68 -4.43c0.77,1.92 4.31,11.38 4.86,11.91 13.18,12.63 45.83,17.61 60.87,16.17 23.93,-2.29 49.17,-1.17 66.54,17.2 4.47,4.73 6.8,9.13 10.86,13.98 3.52,4.2 6.76,9.9 10.89,13.95 2.47,2.42 3.75,3.53 5.66,6.28 8.98,12.95 9.21,5.49 29.59,0.79 4.15,-0.96 7.73,-2.24 11.91,-3.54l59.71 -16.51c8.11,-1.73 15.51,-4.38 23.92,-6.23 4.29,-0.94 7.49,-2.56 11.87,-3.96 4.39,-1.39 7.6,-2.66 11.91,-3.62 3.23,-0.71 9.68,-2.77 12.04,-2.36 15.52,2.7 33.05,-6.79 37.01,-5.17l-39.98 -23.23c-10,-4 -47.79,-28.97 -57.36,-36.83l-18.15 -12.87c-15.89,-10.04 -22.45,-21.13 -42.65,-29.45 -6.05,-2.49 -9.81,-2.82 -15.51,-4.76 -14.65,-4.96 -58.85,-3.91 -77.37,-2.34 -5.49,0.47 -9.34,1.6 -14.73,2.79l-15.23 4.53c-8.82,24.64 -25.12,38.76 -36.72,33.98 -11.72,-4.82 -14.8,-22.41 -1.93,-44.66 3.38,-5.86 9.21,-13.06 13.34,-16.01 11.44,-8.19 19.92,-12.71 25.95,-0.18 1.83,3.8 1.21,5.51 2.32,9.47l17.31 -4.22c15.21,-4.94 67.58,-4.85 79.88,0.22l0.53 -1.49c-19.35,-7.97 -65.25,-73.25 -84.3,-91.92 -15.05,-14.75 -29.47,-29.59 -45.71,-43.06 -18.78,-15.59 -27.73,-31.58 -51.55,-41.39 -5.15,14.38 -11.44,28.22 -19.15,38.84 -18.26,25.14 -33.41,37.74 -53.81,46.85 -12.76,5.71 -33.06,10.07 -37.61,-8.56 -5.94,-24.26 25.48,-56.78 38.69,-66.08l8.19 -6.46c1.6,-1.23 1.99,-1.92 3.76,-3.21l12.72 -8.96c-2.63,-0.95 -6.64,-0.43 -8.94,-0.65 -3.76,-0.36 -6.1,-1.27 -9.75,-1.84 -13.96,-2.18 -30.84,-7.2 -40.82,-19.65 -4.08,-5.1 -9.54,-15.5 -8.04,-25.33 2.15,-14.05 12.37,-24.58 19.42,-27.73 5.67,-2.54 17.18,-0.19 23.46,2.39z"/>
 </g>
</svg>
