<?xml version="1.0" encoding="UTF-8"?>
<!DOCTYPE svg PUBLIC "-//W3C//DTD SVG 1.1//EN" "http://www.w3.org/Graphics/SVG/1.1/DTD/svg11.dtd">
<!-- Creator: CorelDRAW -->
<svg xmlns="http://www.w3.org/2000/svg" xml:space="preserve" width="8.4666mm" height="8.4666mm" version="1.1" style="shape-rendering:geometricPrecision; text-rendering:geometricPrecision; image-rendering:optimizeQuality; fill-rule:evenodd; clip-rule:evenodd"
viewBox="0 0 846.66 846.66"
 xmlns:xlink="http://www.w3.org/1999/xlink"
 xmlns:xodm="http://www.corel.com/coreldraw/odm/2003">
 <defs>
  <style type="text/css">
   <![CDATA[
    .fil0 {fill:black}
   ]]>
  </style>
 </defs>
 <g id="Camada_x0020_1">
  <metadata id="CorelCorpID_0Corel-Layer"/>
  <path class="fil0" d="M168.57 693.05c-3.85,-18.57 -12.45,-25.03 -19.34,-49.35l-13.62 -48.55c-2.56,-13.12 -19.98,-60.02 -28.6,-75.37l-14.15 -25.3c-0.12,-0.22 -0.3,-0.54 -0.43,-0.77 -0.12,-0.22 -0.3,-0.54 -0.43,-0.76 -0.12,-0.23 -0.3,-0.55 -0.43,-0.77 -5.14,-9.46 -20.25,-30.94 -27.22,-41.26l-32.26 -41.97c17.05,14.26 26.3,22.16 41.95,36.96 50.3,47.54 80.23,92.93 92.63,137.33 5.9,21.16 6.28,29.05 8.05,47.77l1.95 31.37c-0.07,4.48 0.26,11.43 -1.06,15.4 -5.71,-10.13 -10.67,-43.87 -12.62,-54.07l-8.36 -60.53c-1.43,-9.19 -7.42,-10.51 -6.76,-5.99 0.18,1.23 0.55,2.7 0.73,4.44 0.39,3.66 0.99,5.76 1.32,9.37 0.54,5.93 1.5,11.49 2.11,17.97l7.6 54.06c1,6.02 1.93,11.9 3.74,18.2 1.77,6.13 3.01,12.36 5.42,18.42 0.86,2.16 1.03,2.93 1.92,5.22 3.18,8.27 3.07,6.4 -0.3,12.68l-1.84 -4.5zm264.84 -6.14c3,-5.58 5.64,-8.05 8.72,-12.97 9.96,-15.85 36.7,-34.84 52.97,-45.13 7.94,-5.02 14.21,-11.24 21.9,-16.46 1.51,3.74 0.29,25.79 0.04,28.29 -3.75,36.58 -19.69,56.56 -58.4,66.76 -1.49,0.39 -2.08,0.88 -3.74,1.38 -1.31,0.39 -0.82,0.3 -2.04,0.43 -1.37,0.15 -1.34,-0.04 -2.38,-0.12 1.93,-2.44 5.36,-3.47 7.7,-4.84l45.54 -36.21c2.68,-1.71 2.51,1.39 3.88,-1.16 2.09,-3.89 -7.06,-5.94 -8.96,-6.9 -5.71,10.62 -41.64,35.74 -53.54,41.8l-20.42 11.48c1.83,-3.4 2.05,-13.93 8.73,-26.35zm256.05 57.48c7.72,3.55 34.32,18.37 37.91,25.98 -14.95,-7.82 -0.44,2.39 -27.7,-15.89l-27.97 -18.75 17.76 8.66zm-30.67 -35.2c4.85,-9.01 9.59,-20.34 16.75,-27.04 2.09,-1.98 5.28,-3.27 7.67,-4.89 0.41,0.91 0.58,0.82 0.88,2.25l-1.2 11.85c-1.86,3.47 -16.49,19.81 -24.1,17.83zm-355.43 -162c-12.2,-19.34 -12.04,-21.11 -18.84,-32.31l-17.43 -32.12c-4.74,-9.8 -7.28,-13.88 -10.99,-24.15 -5.37,-14.82 -0.25,-39.16 0.57,-50.81 0.37,-5.19 0.53,-9.48 0.68,-14.75 0.14,-5.31 -0.37,-9.91 -0.33,-14.88l-11.1 -60.22c7.85,6.77 17.82,23.98 22.52,31.42 20.15,31.88 39.25,76.21 47.34,104.85 7.44,26.34 11.48,50.28 8.08,71.81l-6.67 26.63c-9.38,-11.98 -15.6,-43.47 -19.39,-57.13l-7.02 -28.54c-1.35,-4.74 -2.53,-8.94 -3.96,-13.99 -1.19,-4.22 -3.88,-10.63 -2.83,-13.82 -4.28,-2.81 -6.53,-4.67 -7.7,-2.48l27.66 102.8c1.31,3.29 2.45,4.95 3.91,8.32 5.94,13.8 8.26,10.21 5.36,15.6l-9.86 -16.23zm231.25 -109.06c11.91,-22.15 36.29,-20.31 59.66,-63.76 4.05,5.17 4.07,12.38 5.59,17.75 9.86,34.73 -11.42,63.3 -31.6,79.84 -2.98,2.44 -24.94,20.01 -31.52,19.47 1.41,-2.63 1.47,-4.09 1.72,-6.82 0.99,-10.63 3.59,-13.53 5.23,-19.77 0.66,-2.53 0.16,-3.57 1.93,-6.8 2.86,-5.18 7.96,-13.11 8.23,-18.64 -4.28,-2.81 -6.53,-4.67 -7.71,-2.48l-12.89 30.71c-2.51,7.18 -1.75,16.72 -5.28,23.29l-1.34 -0.9c0.73,-1.35 0.24,-8.46 0.05,-10.59 -2.04,-23.61 -1.34,-24.07 7.93,-41.3zm210.54 35.29c3.23,-0.98 5.47,-1.03 9.22,-1.22 14.41,-0.73 56.05,11.55 76.19,22.09 -2.09,3.49 -4.61,2.81 -9.03,2.75l-33.28 -4.03c-16.06,-2.88 -34.11,-9.77 -51.65,-16.08l8.55 -3.51zm0.82 -64.44c2.59,-4.8 9.15,-11.13 13.82,-12.21 2.95,3.77 1.83,2.5 2.07,5.95 0.17,2.52 0.07,2.25 -0.23,4.92 -2.85,25.32 -27.41,37.49 -31.54,44.36 -3.41,-4.37 -1.13,-3.62 -0.51,-7.85l16.39 -35.17zm-389.47 -148.37c-14.01,-17.02 -45.33,-58.47 -53.04,-74.56l-8.77 -16.06c-3.47,-7.35 -6.83,-14.56 -9.96,-21.89 -1.51,-3.54 -3.61,-7.9 -4.79,-11.27l-10.66 -31.88c-1.96,-6.92 -4.66,-14.95 -4.35,-21.1 7.66,6.6 45.66,51.44 52.41,61.74 2.15,3.29 2.64,3.35 4.76,6.32l19.74 32.43c1.81,3.1 1.2,2.98 3.01,6.08l16.28 32.66c4.83,11.09 12.96,33.97 14.4,43.01 0.98,6.11 5.11,18.27 3.28,23.78 -2.99,-3.82 -4.46,-8.78 -6.44,-12.92 -2.1,-4.38 -5.04,-8.87 -7.15,-13.01l-36.98 -64.53c-4.04,-6.31 -3.64,-9.38 -8.23,-12.46 -11.77,-7.88 1.85,11.15 5.31,18.41 1.48,3.1 3.6,6.07 5.63,9.27 1.15,1.8 1.99,2.96 2.84,4.64l22.71 41.34zm67.31 -145.39c4.93,-6.19 12.42,-7.83 21.54,-9.72 9.76,-2.02 20.32,-3.19 31.92,-2.99l14.27 0.68c2.32,0.07 4.86,0.6 7.53,0.98 14.18,1.98 24.62,3.76 38.01,12.73 6.89,22.2 -30.76,24.67 -53.24,22.81 -3.05,-0.25 -0.08,0.16 -3.37,-0.47 -29.83,-5.75 -19.76,-4.83 -42.36,-13.54 2.26,-1.35 0.62,-0.94 4.63,0.02 7.93,1.92 23.21,3.34 30.87,3.86l8.79 0.54c4.23,0.62 4.36,0.17 7.93,0.39 6.92,0.44 10.71,2.39 16.96,1.31 -1.97,-2.4 -1.64,-2.88 -4.61,-4.88l-26.48 -5.43c-3.74,-0.57 -4.48,-1.24 -8.11,-1.89 -4.15,-0.75 -12.34,-1.99 -15.85,-1.99 -5.19,0 -10.03,-0.37 -16.09,-2.15l0.1 3.6c-4.39,-1.26 -7.08,-1.16 -12.44,-3.86zm9.71 -82.04c1.67,-3.11 2.59,-5.49 5.18,-7.61 3.63,-2.95 3.04,-9.54 12.18,-12.36 3.5,-1.08 5.36,-1.12 11.79,2.84 0.02,5.14 4.68,5.23 1.13,24.18 -0.44,2.33 -2.09,3.69 -2.51,6.02 -1.72,9.56 -2.23,5.27 -5.66,9.79 -1.12,1.48 -1.67,3.82 -2.8,5.3 -1.84,2.44 -6,5.67 -7.96,8.08l-23.92 24.2 2.46 -31.47c2.54,-9.5 5.2,-19.85 10.11,-28.97zm-10.76 -17.05c-5.62,10.45 -11.09,21.67 -14.17,33.36l-7.32 54.1c0.2,1.52 0.75,3.8 1.46,5.86 1.03,3.06 1.64,3.28 2.83,6.05 -1.59,2.95 -4.12,2.72 -4.58,6.4 -0.78,6.15 -5.45,12.02 -6.76,24.53l-9.67 84.87c-0.33,3.36 -0.3,5.53 -0.62,8.4 -0.37,3.31 0.23,6.22 -1.11,9.03l-24.76 -55.05c-5.21,-11.07 -12.68,-23.08 -19.89,-34.58l-11.72 -16.48c-2.15,-2.78 -2.52,-3.66 -4.58,-6.29 -14.87,-19.06 -44.01,-53.35 -64.6,-71.92 -3.37,-1.21 -4.6,-1.59 -7.71,-2.49 -2.27,4.21 -0.96,9.09 -0.02,14.83 0.42,2.55 0.75,4.66 1.42,7.27 3.66,14.4 7.19,28.41 12.96,43.51l8.94 22.45c6.46,15.2 12.77,24.74 18.73,37.25 5.79,12.14 16.91,26.37 25.93,38.95l35.66 46.68c1.44,1.82 2.2,2.41 3.6,4.03 1.76,2.04 1.52,1.97 3.04,3.96 3.32,4.35 2.82,4.04 4.69,7.8 2.14,4.3 3.79,10.53 4.53,14.7l5.42 28.32c5.18,21.45 3.81,39.63 -2.67,55.45 -4.92,12.03 -4.74,26.85 -7.2,40.7l-2.91 13.73c-1.41,13.51 -7.87,30.23 -9.36,41.1 -1.17,8.59 -9.89,33.19 -13.81,40.48l-1.34 -0.9c5.25,-9.75 -5.32,-53.51 -9.85,-69.22 -4,-13.85 -9.27,-29.2 -16.54,-44.01l-18.12 -36.46c-1.45,-3.07 -2.72,-4.51 -4.23,-7.66 -4.09,-8.54 -11.18,-21.45 -17.87,-30.05 -4.57,-5.87 -6.86,-9.73 -11.8,-15.78 -4.48,-5.49 -8.47,-10.1 -12.54,-15.19 -6.23,-7.77 -4.78,-7.15 -14.8,-16.19l-6.39 -1.6c-2.44,4.54 0.43,9.95 2.99,16.67 2.19,5.73 2.96,9.18 4.82,14.81l4.31 14.73c5.66,33.18 4.77,58.08 1.72,87.18 -1.39,13.26 -1.43,26.99 5.99,43.94 2.32,5.3 4.87,9.94 7.4,15.17 1.75,3.61 2.3,4.24 4.17,7.65l24.84 45.88c6.32,10.72 15.01,22.09 19.44,32.39 1.07,2.5 2.51,5.3 3.09,7.5 0.9,3.46 -0.19,10.99 -0.25,14.81 -0.19,10.38 -7,16.2 -14.14,21.69 -28.84,22.14 -54.87,46.18 -81.6,70.39 -6.36,5.76 -15.48,11.61 -19.49,19.05l-1.34 -0.9c7.52,-13.98 3.91,-53.9 1.23,-72.62l-4.97 -28.26c-0.8,-3.38 -1.11,-6.05 -2.11,-9.48l-11.05 -29.11c-9.41,-18.67 -15.83,-30.78 -29.3,-50.03 -27.78,-39.69 -62.31,-69.76 -104.76,-106.5 -9.17,-7.94 -16.48,-13.9 -29.25,-22.46 -10.52,0.5 -8.27,1.5 3.38,18.14 10.68,15.26 26.1,30.94 35.97,46.01 2.61,3.99 4.26,5.54 6.71,9.42 2.53,4.02 3.77,5.01 6.24,8.64 10.97,16.15 25.39,38.84 33.14,54.81 1.56,3.22 3.03,6.08 4.47,9.11l11.2 26.3c9.32,26.48 16.69,52.55 23.8,78.24 0.91,3.26 0.62,4.8 1.64,8.05 0.07,0.23 0.17,0.53 0.25,0.76 0.08,0.23 0.2,0.53 0.29,0.75l1.31 2.95c2.78,7.45 4.83,14.45 9.2,22.48 10.93,20.1 15.49,45.83 11.8,59.6 -2.19,8.15 -7.6,12.36 -13.45,18.73 -2.28,2.48 -3.29,3.69 -5.32,6.19l-26.9 29.19c-7.1,6.58 -26.96,28.19 -31.41,35.49 -7.53,12.8 11.77,9.24 26.03,-2.58 3.57,-2.96 5.23,-7.38 8.82,-10.38l18.93 -19.94c8.8,-9.59 15.95,-21.33 28.51,-27.88 11.84,-6.18 21.95,-13.41 35.57,-17.91 4.83,-1.6 8.43,-2.38 13.24,-3.37l74.22 -6.6c9.55,8.23 15.62,8.57 25.41,12.26 4.46,1.68 6.19,2.08 9.74,3.26 27.89,9.29 51.62,23.13 80.2,35.75l45.64 19.97c6.86,2.9 15.71,5.4 22.46,8.8 0.01,3.55 2.47,6.21 3.82,9.72 9.21,23.92 26.21,33.31 50.18,32.02 8.6,-0.46 14.58,-0.84 18.23,-7.63 2.02,-3.75 0.42,-8.19 -3.06,-13.15 -13.94,-19.88 -46.18,-32.24 -61.17,-30.19 -5.11,0.7 -14.4,-3.42 -21.51,-6.08 -16.01,-6 -32.16,-13.5 -48.43,-20.73 -52.28,-23.24 -41.11,-22.25 -98.55,-42.91 2.27,-1.35 0.77,-0.65 4.23,-0.61l74.92 3.02c2.44,0.02 3.16,0.36 5.61,0.37 2.57,0.03 2.06,-0.05 4.71,0.16l111.99 4.55c31.62,0.09 60.96,-2.41 91.25,-3.95l20.53 -0.35c6.78,0.08 16.74,1.69 20.83,-1.08 12.16,8.15 16.81,11.08 27.73,17.14 19.08,10.59 36.68,25.9 56.24,34.34 4.09,1.76 7.1,2.67 10.75,3.62 21.53,5.64 7.43,-23.34 -55.76,-53.03 -3.93,-1.84 -7.86,-3.27 -11.83,-5.35 10.54,-7.15 20.82,-8.38 28.96,-23.52 5.46,-10.15 4.62,-19.46 -9.99,-35.31 -9.05,-3.48 -12.89,-3.65 -20.33,0.65 -14.21,8.21 -18.01,28.66 -28.58,39.96 -7.25,7.76 4.67,8.94 -13,9.83 -1.99,0.1 -3.39,0.24 -5.2,0.29 -9.8,0.25 -21.36,-0.69 -30.46,0.44 -2.91,0.36 -2.45,0.03 -5.35,0.04 -4.1,0.01 -6.73,0.39 -10.25,0.81 -3.07,0.36 -6.17,0.39 -9.49,0.79 -3.15,0.38 -6.67,0.37 -10.41,0.56 -23.64,1.18 -57.05,3.37 -82.96,1.27 3.83,-4.81 34.17,-7.43 47.01,-30.23 1.84,-3.28 3.87,-3.55 6,-7.6 2,-3.82 1.28,-5.88 3.61,-10.1 7.49,-13.56 5.03,-42.7 5.44,-60.72 0.13,-5.49 2.95,-15.02 -6.59,-21.41 -2.88,-1.94 -6.1,-2.86 -7.79,-2.62 -1.87,0.26 -3.06,2.21 -4.66,3.57 -3.21,2.72 -5.34,4.94 -8.44,7.33 -5.69,4.41 -12.2,9.4 -17.6,13.51 -6.16,4.69 -11.85,7.91 -18.5,12.09 -13.22,8.31 -22.77,19.75 -34.38,29.54 -5.94,5.01 -17.84,20.71 -19.77,28.47 -2.16,8.64 -4.93,12.84 -6.69,23.11 -0.52,2.99 -3.89,9.51 -3.17,12.28 -8.1,-2.1 -19.84,-0.79 -27.78,-1.41 -3.02,-0.23 -3.56,0.02 -6.26,-0.17 -3.37,-0.23 -3.59,-0.49 -7.23,-0.5 -18.17,-0.04 -38.07,-2.36 -56.02,-2.32 -13.62,0.04 -27.71,-0.89 -40.85,-0.19 -4.58,0.25 -7.94,0.62 -12.65,0.65 -18.5,0.1 -34.96,2.68 -50.8,5.95 -3.84,0.79 -9.58,1.04 -11.59,3.56l-2.67 -1.79c4.32,-8.04 30.1,-30.05 37.13,-36.14 19.26,-16.65 37.64,-34.06 58.44,-49.86 3.02,-2.28 7.5,-3.82 10.33,-6.77 3,-3.13 5.82,-7.61 9.04,-10.02 4.9,-3.66 8.09,-10.22 13.84,-13.39l10.26 -6.89c8.24,-5.29 19.96,-8.82 29.72,-12.56 2.33,-0.89 3.58,-1.63 5.98,-2.71l11.35 -5.14c1.82,-0.84 3.76,-1.67 5.99,-2.68 11.02,-4.97 22.31,-13.03 36.29,-14.34 5,-0.48 9.05,-0.58 13.84,-1.22 16.87,-2.25 55.08,-1.38 76.3,1.58 19.16,2.68 38.22,3.95 58.78,9.12 3.97,1 5.67,1.15 9.02,2.12 4.36,5.29 3.43,6.77 12.88,13.1 18.52,12.42 41.58,13.64 46.21,5.04 5,-9.29 -14.45,-27.25 -30.26,-32.11 -6.06,-1.87 -7.89,-1.29 -13.54,-3.2 -12.39,-4.2 -15.5,-2.63 -19.74,5.25l-15 -3.07c-20.7,-4.83 -40.32,-6.79 -59.56,-9.14 -3.64,-0.44 -3.65,0.11 -7.05,-0.22 -2.78,-0.27 -4.97,-0.93 -7.55,-1l-7.09 -0.28c-6.25,-0.2 -14.52,1.15 -21.11,-0.56 2.88,-1.96 6.17,-2.62 9.88,-3.84l102.25 -34.01c2.4,-0.51 3.87,-0.59 6.07,-1.34l33.22 -9.46c3.33,-1.19 7.22,-1.99 11.09,-3.13 1.84,-0.54 3.28,-1.12 5.05,-1.74 2.69,-0.93 3.36,-0.94 5.85,-1.69l44.6 -12.12c4.54,-0.94 7.25,-1.3 11.88,-1.89 4.07,-0.52 8.08,-1.19 12.36,-1.11 6.56,0.13 11.25,-2.98 20.14,1.46 20.78,10.4 33.74,14.84 52.56,21.21l23.94 6.27c9.1,1.88 19.55,2.71 28.66,4.01 30.83,4.41 31.31,-10.78 8.35,-24.56 -10.08,-6.06 -19.72,-8.82 -28.95,-11.74l-51.71 -13.73c4.66,-7.75 13.72,-12.03 19.12,-22.07 5.36,-9.97 15.12,-24.15 4.48,-41.07 -3.63,-5.78 -3.9,-5.27 -10.68,-11.39 -8.24,-2.94 -8.98,-2.14 -14.06,-0.36 -10.48,3.66 -21.09,16.8 -25.16,25.98l-4.61 12.08c-2.36,4.31 -2.97,7.38 -4.7,12.07 -7.26,19.64 10.54,27.92 -22.23,29.28 -14.24,0.6 -28.6,0.9 -39.89,4.97 -2.92,1.06 -5.53,1.38 -9.13,2.6l-9.14 2.56c-3.11,0.93 -6.23,1.73 -9.18,2.5l-64.36 18.58c2.46,-4.09 7.94,-5.49 11.63,-8.37 23.68,-18.48 47.32,-41.69 42.74,-78.75 -1.56,-12.59 -4.76,-25.52 -10.81,-39.67 -1.94,-4.55 -4.6,-9.35 -5.07,-13.43 -0.59,-5.09 -2.95,-8.32 -9.83,-14.09l-7.1 -0.28c0.63,2.02 3.94,11.8 3.85,12.55 -1.98,18.02 -23.52,41.22 -35.79,48.86 -19.54,12.16 -37.91,27.86 -39.43,53.01 -0.4,6.48 0.63,11.43 0.62,17.75 -0.01,5.5 1.15,12.04 0.58,17.75 -0.33,3.43 -0.6,5.08 -0.31,8.44 1.4,15.82 -3.49,9.88 -21.87,17.99 -3.74,1.65 -7.25,2.7 -11.24,4.1l-55.56 21.54c-7.22,3.34 -14.49,5.52 -22.02,8.95 -3.83,1.75 -7.28,2.3 -11.47,3.74 -4.2,1.43 -7.43,2.28 -11.29,4.02 -2.89,1.31 -9.07,3.42 -10.6,5.13 -10.02,11.3 -29.27,13.84 -31.23,17.49l15.54 -42.36c5.03,-9.13 17.82,-51.62 20.08,-63.64l5.6 -21.13c5.67,-17.49 3.61,-30.36 13.63,-48.98 3,-5.58 5.63,-8.05 8.72,-12.97 7.93,-12.63 42.01,-37.68 57.01,-47.26 4.43,-2.83 8.07,-4.17 12.89,-6.36l14.37 -5.24c22.24,14.91 43.48,16.86 49.23,6.17 5.81,-10.81 -2.97,-26.94 -26.76,-37.53 -6.26,-2.78 -15.21,-5.23 -20.2,-5.22 -13.82,0.03 -23.09,1.32 -19.73,15.07 1.02,4.17 2.57,5.19 4.23,9.07l-15.75 6.71c-14.62,4.89 -54.15,35.66 -60.25,47l-1.34 -0.9c9.59,-17.84 3.05,-97.93 5.66,-124.31 2.05,-20.84 3.58,-41.38 7.34,-61.88 4.35,-23.7 1.01,-41.98 12.82,-63.94 12.98,8.7 26.48,16.29 39.01,20.42 29.69,9.79 49.1,11.17 70.28,6.64 13.25,-2.83 31.35,-11.18 23.02,-29.03 -10.84,-23.24 -55.13,-31.32 -70.99,-31.15l-10.29 -0.47c-1.98,-0.06 -2.71,-0.4 -4.86,-0.4l-15.28 0.14c1.39,-2.31 4.75,-4.23 6.35,-5.76 2.61,-2.5 3.81,-4.61 6.21,-7.21 9.17,-9.97 18.76,-23.95 18.43,-39.95 -0.13,-6.54 -2.57,-18.21 -9.92,-25.34 -10.5,-10.19 -24.88,-12.78 -32.2,-11.22 -5.89,1.25 -13.1,9.92 -16.22,15.7z"/>
 </g>
</svg>
