<?xml version="1.0" encoding="UTF-8"?>
<!DOCTYPE svg PUBLIC "-//W3C//DTD SVG 1.1//EN" "http://www.w3.org/Graphics/SVG/1.1/DTD/svg11.dtd">
<!-- Creator: CorelDRAW -->
<svg xmlns="http://www.w3.org/2000/svg" xml:space="preserve" width="101.6mm" height="16.9332mm" version="1.1" style="shape-rendering:geometricPrecision; text-rendering:geometricPrecision; image-rendering:optimizeQuality; fill-rule:evenodd; clip-rule:evenodd"
viewBox="0 0 10159.98 1693.32"
 xmlns:xlink="http://www.w3.org/1999/xlink"
 xmlns:xodm="http://www.corel.com/coreldraw/odm/2003">
 <defs>
  <style type="text/css">
   <![CDATA[
    .fil0 {fill:#64732F}
   ]]>
  </style>
 </defs>
 <g id="Camada_x0020_1">
  <metadata id="CorelCorpID_0Corel-Layer"/>
  <path class="fil0" d="M8780.54 910.15c94.49,14.23 406.78,197.22 481.08,288.48 38.88,47.75 76.52,104.53 58.96,186.43 -32.28,150.62 -156.31,18.05 -220.42,-25l-76.22 -55.13c-12.96,-11.07 -22.01,-20.54 -33.66,-29.67 -31.4,-24.62 -83.69,-86.74 -105.39,-119.12 -6.07,-9.06 -1.8,-3.2 -7.08,-9.96l-32.95 -47.39c-16.95,-24.87 -37.73,-53.58 -46.52,-84.19l117.82 93.48c112.26,86.01 226.29,137.31 290.75,242.44 11.02,17.97 13.32,58.43 60.48,32.68 8.64,-53.78 -52.34,-116.41 -89.12,-147.79 -63.85,-54.48 -132.01,-92.65 -206.99,-152.96l-164.08 -136.51c-6.55,-8.63 -5.79,-16.29 -26.66,-35.79zm-7218.14 -77.04l47.22 0c12.79,-0.41 21.46,-1.16 29.04,0l6900.03 0c82.14,-5.88 182.08,-0.2 263.53,-0.2 11.58,-87.15 81.21,-217.79 124.46,-298.64 27.62,-51.62 96.65,-164.71 135.81,-211.03 53.26,-63 95.04,-110.7 182.16,-131.92 38.51,-9.38 103.06,-9.14 140.24,2.59 170.54,53.8 51.47,206.55 -2.44,283.95 -10.79,15.49 -21.18,28.18 -33.21,43.22 -24.23,30.27 -97.84,123.63 -129.15,141.61 -31.8,18.26 -104.19,90.68 -207.38,143.86 -15.74,8.11 -46.9,18.84 -55.41,25.9 30.28,0.94 258.69,-1.43 266.9,-7.88l9.29 -9.7c55.74,-38.89 189.7,-66.4 264.38,-85.11 115.05,-28.83 161.34,-47.94 287.88,-68.64 107.75,-17.62 215.89,3.48 289.52,49.76 91.54,57.53 118.85,157.73 32,225.09 -55.64,43.16 -194.15,61.51 -285.06,66.85 -111.78,6.56 -231.88,-7.93 -327.94,-28.86 -43.29,-9.44 -95.5,-23.73 -137.66,-39.94 -21.93,-8.43 -42.28,-15.62 -64.08,-24.17 -15.66,-6.14 -48.46,-25.15 -63.03,-26.67l-356.99 0.35c9.2,10.99 83.57,43.99 98.46,50.8 45.19,20.67 145.31,80.93 192.16,112.94 8.22,5.62 15.34,11.56 22.35,15.76 10.07,6.04 13.44,7 23.2,14.9 18.2,14.72 28.55,22.83 42.15,33.97 54.54,44.69 103.13,93.85 120.16,185.05 23.83,127.56 -29.79,279 -205.19,179.56 -31.44,-17.82 -62.32,-40.97 -90.68,-61.87l-127.11 -101.59c-23.75,-18.38 -66.73,-75.23 -87.44,-103.04 -6.14,-8.26 -10.31,-14.41 -16.1,-21.85 -43.35,-55.7 -91.18,-121.38 -113.52,-191.77 -51.84,-163.29 -11.7,-95.12 -189.29,-109.07l-6906.69 0c-14.27,2.31 -30.84,0.11 -59.14,0.11 -82.68,0 -105.19,-10.47 -118.34,18.47 -10.4,22.89 -18.98,61.85 -26.59,87.21 -26.18,87.17 -146.96,250.33 -217.29,316.2 -55.37,51.85 -64.76,56.25 -125.96,102.54 -46.78,35.39 -126.02,101.79 -206.15,97.2 -106.47,-6.11 -136.67,-226.02 -32.19,-339.65l38.18 -38.1c8.17,-7.51 9.99,-11.01 19.7,-18.5 99.07,-76.45 218.7,-150.55 331.36,-201.82 12.88,-5.86 41.11,-16.66 49.68,-26.86l-356.25 -0.57 -127.45 50.22c-133.52,43.68 -325.23,86.7 -473.17,68.92 -96.23,-11.56 -227.23,-18.52 -287.5,-72.48 -124.84,-111.78 24.93,-312.48 345.98,-265.99 74.9,10.84 406.95,94.65 496.76,130.08 32.09,12.66 52.13,33.86 58.4,35.2l254.8 4.7c-4.99,-7.15 0.76,-4.32 -9.64,-8.84 -40.06,-17.38 -41.72,-14.42 -90.5,-45.02 -2.46,-1.55 -7.23,-5.17 -9.91,-6.98 -53.68,-36.4 -172.11,-122.01 -204.84,-163.41 -11.62,-14.71 -24.45,-29.37 -37.39,-43.52 -43.34,-47.4 -91.69,-114.02 -129.11,-179.59 -19.28,-33.78 -42.83,-71.56 -27.12,-120.45 11.8,-36.73 43.02,-59.55 85.3,-72.33 89.15,-26.96 190.36,4.34 242.74,48.14 40.68,34.01 108.53,113.18 139.99,169.3 16.68,29.75 42.69,61.82 58.71,93.55l26.41 50.01c39.54,76.81 41.96,78.34 76.79,159.79 17.17,40.13 25.77,77.16 37.29,118.47l203.88 0 0 -0.21zm-207.68 187.32c6.81,-8.72 1.34,-6.41 13.83,-8.57l-10.04 11.24c-8.85,29.77 -33.56,58.39 -48.48,82.2l-52.53 74.35c-45.25,55.05 -133.73,147.13 -200.59,184.65 -59.82,33.57 -184.21,175.23 -217.96,19.38 -30.74,-141.98 109.13,-237.38 202.74,-301.2 88.26,-60.17 232.95,-143.24 334.76,-171.92 -1.93,21.62 -4.5,7.66 -25.95,36.14 -32.48,43.13 -71.43,62.07 -95.17,82.68l-275.08 207.67c-24.73,23.97 -96.21,88.97 -87.45,143.77 6.21,6.26 8.12,7.56 12.72,12.28 42.54,-2.16 36.78,-26.4 54.1,-54.08 32.45,-51.85 113.53,-110.01 161.58,-143.33l233.52 -175.26zm-1144.96 -83.71c-183.18,-27.72 -193.3,-119.92 -99.1,-179.97 73.72,-46.99 141.98,-46.89 224.67,-46.89 54.91,0 464.91,105.89 481.87,118.85 -37.28,1.44 -39.54,-3.1 -71.19,-3.07 -16.94,0.02 -33.87,0 -50.81,0l-254.02 -3.86c-26.55,0.1 -68.11,-15.11 -74.41,16.96 -10.16,51.77 64.37,26.36 115.22,34.42 45.47,7.2 142.3,-1.32 205.14,6.16 32.19,3.84 71.06,-3.39 103.6,2.32 -102.14,44.16 -278.12,71.4 -396.12,71.4l-184.85 -16.32zm974 -173.75c-39.02,-5.49 -136.29,-85.9 -168.62,-110.01l-66.21 -52.3c-26.74,-22.4 -101.29,-123.62 -118.43,-148.24 -21.79,-31.31 -105.72,-123.95 -85.42,-170.02 19.02,-43.18 82.14,-47.38 123.71,-47.38 101.79,0 216.26,157.06 259.45,224.46l23.52 39.85c36.31,56.09 56.12,96.46 86.88,154.97 6.65,12.65 10.61,25.91 17.8,41.12 9.52,20.12 27.29,63.05 31.52,86.45 -66.71,-47.88 -201.66,-221.29 -254.52,-308.08 -6.51,-10.7 -16.42,-22.66 -22.26,-32.99 -19.53,-34.55 -95.86,-151.74 -125.46,-151.74 -17.12,0 -26.77,9.35 -29.09,23.46 -3.49,21.28 24.91,38.26 46.77,67.08 14.4,18.99 27.22,34.3 41.65,55.56l238.71 327.81zm8159.97 65.28c15.77,-12.37 311.78,-86.89 354.94,-96.96 117.96,-27.51 224.53,-39.4 335.22,16.77 99.43,50.45 114.33,154.01 -61.16,184.04l-154.93 16.65c-21.92,-0.14 -34.31,3.88 -50.79,3.88l-131.08 -8.03c-58.37,-5.48 -224.25,-38.27 -265.81,-64.13 33.31,-3.1 73.17,2.29 104.19,-1.75l305.75 -7.91c10.81,-10.3 25.84,-33.48 5.38,-47.43 -14.81,-10.09 -32.29,-2.07 -52.2,-1.9 -42.35,0.36 -84.88,-0.42 -127.25,-0.21 -22.32,0.11 -33.88,4.07 -59.14,3.97l-203.12 3.01zm-472.02 -47.95c11.74,-48.79 34.94,-90.87 54.45,-132.28 39.31,-83.44 64.61,-116.48 109.2,-191.05 42.18,-70.57 102.82,-147.33 169,-191 77.95,-51.44 191.01,-33.21 210.58,13.01 13.44,31.74 -14.07,73.79 -29.24,96.41 -19.83,29.58 -38.24,49.99 -57.87,77.59 -56.56,79.52 -44.16,70.45 -119.74,146.8 -48.98,49.49 -184.41,149.98 -230.77,163.31 2.78,-6.25 108.88,-134.08 127.7,-164.61 22.26,-36.12 134.7,-201.74 159.99,-229.53 9.58,-10.52 13.64,-16.65 23.84,-27.04 33.21,-33.87 -0.57,-53.26 -12.96,-53.26 -41.33,0 -157.34,199.15 -194.27,252.61l-98.15 126.36c-23.5,28.9 -78.37,92.02 -111.76,112.68z"/>
 </g>
</svg>
