<?xml version="1.0" encoding="UTF-8"?>
<!DOCTYPE svg PUBLIC "-//W3C//DTD SVG 1.1//EN" "http://www.w3.org/Graphics/SVG/1.1/DTD/svg11.dtd">
<!-- Creator: CorelDRAW -->
<svg xmlns="http://www.w3.org/2000/svg" xml:space="preserve" width="84.6666mm" height="16.9332mm" version="1.1" style="shape-rendering:geometricPrecision; text-rendering:geometricPrecision; image-rendering:optimizeQuality; fill-rule:evenodd; clip-rule:evenodd"
viewBox="0 0 8466.66 1693.32"
 xmlns:xlink="http://www.w3.org/1999/xlink"
 xmlns:xodm="http://www.corel.com/coreldraw/odm/2003">
 <defs>
  <style type="text/css">
   <![CDATA[
    .fil0 {fill:#64732F}
   ]]>
  </style>
 </defs>
 <g id="Camada_x0020_1">
  <metadata id="CorelCorpID_0Corel-Layer"/>
  <path class="fil0" d="M7047.43 752.51c135.37,66.65 273.89,123.57 413.98,155.66 26.65,6.12 167.77,21.46 198.73,14.49 -38.89,-19.16 -68.16,-18.96 -110.11,-39.62 -90.82,-44.72 -160.86,-114.63 -234.71,-165.98l-486.07 -327.13c-154.96,-98.98 -608.14,-385.7 -797.47,-329.54 -103.59,30.75 -153.75,125.02 -99.44,223.56 78.28,142.07 395.81,289.67 556.46,368.78 71.8,35.36 239.97,105.93 312.86,127.77 37.94,11.36 69.26,24.5 103.05,33.75 68.06,18.62 126.84,33.43 194.12,46.78 39.15,7.79 174.3,24.51 195.25,34.83l3.21 -5.78c-28.76,-14.15 -79.91,-25.75 -110.01,-39.26 -44.68,-20.09 -73.39,-37.87 -113.78,-50.42l-105.93 -58.05c-113.78,-55.92 -205.14,-126.28 -307.47,-187.8 -35.75,-21.47 -61.49,-39.81 -96.25,-62.82 -14.43,-9.56 -31.6,-20.15 -50.73,-33.05 -9.43,-6.36 -41.71,-25.52 -34.96,-37.63 12.96,-23.23 32.23,-2.82 59.2,16.16l211.59 139.24c127.28,76.52 141.75,98.87 298.48,176.06zm-2095.37 480.18c-66.49,-32.75 -128.86,-85.17 -181.57,-128.87 -54.12,-44.86 -105.05,-94.42 -162.94,-134.33 -65.39,-45.06 -141.43,-73.46 -214.66,-99.12 -175.53,-61.53 -206.58,115.14 -181.83,162.7 56.06,107.74 42.94,81.55 160.51,163.79 192.71,134.82 499.38,235.85 728.87,221.38 56.22,-3.55 178.48,-5.78 221.13,-25.53l-280.88 -31.48c-88.05,-13.38 -217.1,-53.02 -295.78,-91.77 -70.48,-34.69 -95.17,-68.77 -191.69,-116.29l9.58 -17.16c86.09,20.97 103.4,58.22 173.68,92.83 93.05,45.82 154.96,75.65 261.08,94.8 33.48,6.03 59.61,12.38 91.88,15.46l220.47 18.63c79.69,4.24 135.35,18.58 203.71,-16.53 -41.06,-10.04 -191.19,18.26 -341.65,-30.11 -79.84,-25.68 -136.93,-37.54 -219.91,-78.4zm-1939.4 -68.71c-27.36,-36.19 -60.18,-54.68 -47.71,-77.03 13.81,-24.74 43.02,27.11 51.41,37.63l146.45 163.13c37.29,34.97 76.87,66.57 126.05,102.01 40.32,29.06 108.85,71.05 154.73,93.64l3.23 -5.79c-33.23,-16.36 -72.33,-66.98 -91.83,-88.1 -103.45,-111.99 -274.45,-344.48 -368.2,-467.1 -28.22,-36.9 -140.99,-179.38 -189.15,-93.09 -79.05,141.64 60.18,295.35 142.72,403.85l102.01 113.86c41.02,40.16 76.28,70.23 129.85,105.69 19.45,12.89 58.63,33.12 79.4,48.61 37.42,27.84 213.72,89.31 257.09,101.29 25.86,7.14 59.43,11.69 83.24,20.21 24.76,8.86 39.13,18.45 79.67,9.3 -168.25,-82.84 -311.74,-154.03 -442.72,-248.77 -55.59,-40.21 -106.16,-94.61 -149.77,-142.98 -24.38,-27.04 -45.23,-48.25 -66.47,-76.36zm-919.68 231.38c-2.17,-13.74 -10.31,-27.45 -18.29,-42.6 -22.08,-41.97 -58.92,-166.76 -75.73,-217.4 -4.98,-14.97 -8.53,-30.05 -15.04,-43.51 -43.09,-89.25 -61.43,-149.23 -123.57,-246.51l-42.59 -59.4c-32.59,-38.25 -4.58,-25.09 -56.37,-50.58 -18.08,18.47 -10.57,4.53 -32.11,26.18 -92.7,93.16 -33.74,247.56 25.14,340.11 45.4,71.35 169.15,200.98 244.15,239.93 -3.23,-20.5 -11.87,-25.73 -26.78,-44.89 -44.08,-56.67 -83.48,-150.05 -95.94,-187.52 -10.62,-31.96 -42.69,-106.66 -29.97,-134.95 32.62,16.94 25.9,23.97 35.09,51.98l42.37 112.17c9.9,22.76 7.84,31.5 22.02,55.84 25.69,44.11 31.95,60.47 66.33,105.16l81.29 95.99zm-1073.35 -389.78c-94.93,-46.74 -186.69,-72.96 -273.58,-86.32 -48.64,-7.47 -80.08,-9.76 -125.98,-10.66 -25.6,-0.5 -37.47,2.08 -60.61,1.87l-230.9 26.77 -111.45 33.06c-24.38,8.38 -29.2,7.37 -54.84,19.19 -21.38,9.83 -31.58,13.12 -52.67,25.77 -19.25,11.52 -30.28,14.03 -45.84,31.01 57.24,78.33 278.09,84.13 366.87,90.64 108.32,7.95 210.5,21.2 317.99,35.8 145.26,19.69 386.04,23.56 471.29,36.44 40.82,6.18 120.93,34.95 161.66,25.77l-100.65 -41.82c-162.61,-58.74 -304.96,-97.15 -475.56,-126.06l-177.62 -28c17.56,-25.97 13.67,-18.59 77.24,-13.05 25.75,2.25 53.86,7.38 79.84,10l168.83 32.11c109.16,24.93 251.89,58.3 352.09,107.63l3.23 -5.78c-60.4,-29.75 -173.13,-107.15 -289.34,-164.37zm772.25 394.45l-1.57 -0.44c-13.97,-3.88 -28.04,-8.05 -42.1,-13.18 -40.78,-14.88 -78.17,-23.51 -122.36,-45.82 -34.85,-17.58 -31.28,-17.88 -63.35,-21.7 -20.3,-2.41 -33.36,-8 -54.12,-9.32 -13.63,-0.88 -17.76,1.27 -31,-1.18 -14.14,-2.61 -14.24,-6.03 -28.02,-7.54l-386.65 -42.77c-37.25,-0.65 -67.86,-2.82 -103.59,-4.7l-440.74 -52.01c-133.93,-13.29 -430.72,-5.73 -504.71,-121.26 -48.43,-75.59 42.75,-104.32 103.3,-134.82 103.69,-52.23 223.48,-72.18 338.24,-87.51 94.6,-12.63 200.08,-14.77 295.85,-0.12 407.79,62.31 598.51,362.02 1110.86,502.57 28.07,7.72 63.12,26.04 86.7,15.13 -52.06,-25.64 -156.64,-125.04 -184.75,-161.48 -29.06,-37.62 -60.76,-74.02 -82.49,-114.78l-54.54 -146.94c-11.05,-43.41 -10.68,-83.19 2.25,-129.98 12.04,-43.62 37.32,-87.75 68.02,-111.43 87.98,-67.82 136.45,-0.48 183.55,61.55 42.83,56.42 79.73,114.63 107.97,179.21l40.11 88.87c23.59,60.37 41.51,125.5 62.22,187.82 56.69,170.6 109.19,204.23 313.34,244.54 25.63,5.05 44.31,6.93 70.01,10.83 26.55,4.04 44.18,8.96 70.61,12.9l211.79 38.59c188.3,34.39 374.28,66.53 564.32,86.14 15.85,1.64 23.9,2.39 36.95,3.75l30.39 -0.84 -167.92 -75.39c-171.15,-84.27 -321.9,-249.52 -417.57,-399.89l-76.73 -154.81c-0.31,-1.31 -0.59,-3.21 -0.89,-4.52 -2.32,-9.53 -1.33,-3.78 -3.74,-13.29 -19.1,-74.77 -5.3,-212.19 100.5,-227.18 30.42,-4.3 57.16,3.55 87.81,18.64 136.98,67.44 398.29,533.73 582.72,673.56 112.18,85.07 248.76,198.08 402.76,188.63l165.34 -9.09c17.2,-1.35 26.32,-2.79 44.4,-4.58l280.91 -29.72c57.57,-5.97 109.39,-15.11 165.56,-23.77l241.21 -41.78c14.62,-2.51 22.95,-7.38 37.37,-10.4l81.92 -14.49c37.25,-7.76 79.37,-13.61 112.33,-30.55l-116.46 -12.6c-232.15,-35.45 -485.48,-141.41 -663.09,-290.75 -146.55,-123.25 -91.16,-326.41 62.1,-350.91 52.64,-8.42 180.22,39.2 248.69,72.91 172.34,84.86 245.64,208.6 400.83,285.02 211.09,103.93 372.54,123.89 602.81,109.83 26.92,-1.66 43.6,-2.79 70.7,-2.15 44.85,1.05 65.78,-12.07 104.81,-22.39 27.69,-7.31 11.85,-1.56 34.99,-2.21 26.22,-0.7 43.07,-15.54 68.82,-23.17 23.99,-7.12 41.17,-11.95 65.13,-18.96l205.99 -55.62c68.91,-20.27 176.87,-37.36 241.47,-56.34l449.55 -90.33c94.64,-9.45 188.33,-31.36 282.44,-40.53 41.51,-4.05 177.5,-8.75 206.89,-22.36 -19.57,-4.77 -30.56,-3.58 -53.41,-7.08 -132.74,-20.27 -252.06,-46.63 -384.59,-82.66 -244.17,-66.38 -659.94,-260.55 -858.53,-421.45 -114.02,-92.39 -208.59,-239.25 -85.58,-362.28 41.36,-41.37 94.66,-61.95 150.51,-69.01 213.7,-27.02 678.64,246.33 881.68,393.36 63.38,45.89 127.98,78.67 192.78,125.58 24.08,17.44 41.27,27.19 65.4,43.13 39.03,25.77 79.66,55.26 119.94,84.63 60.09,43.81 177.44,141.45 236.16,170.36 140.21,69.04 239.75,54.46 358.75,97 42.11,15.05 64.83,14.18 108.96,20.82 75.64,11.39 398.37,9.15 432,25.72 6.22,3.06 11.24,14.62 12.1,20.39 1.35,9.29 -0.01,13.61 -6.91,25.96 -7.02,12.59 -261.7,-8.2 -299.58,-11.12l-395.22 -7.17c-19.82,-0.4 -31.49,-0.62 -51.35,-1.03l-146.92 3.13c-31.31,-0.52 -133.47,2.32 -208.86,7.42 -192.68,9.66 -390.91,34.94 -593.43,72.31 -28.65,-0.1 -64.18,9.65 -89.21,16.35l-83.43 18.15c-12.73,2.73 -25.48,5.52 -38.25,8.33l-449.25 97.74c-109.7,31.78 -222.85,60.6 -328.59,101.25 -8.16,3.14 -14.39,4.33 -23.22,6.85 -38.01,10.89 -62.64,22.91 -100.87,34.23l-403.37 121.81c-42.14,6.05 -88.68,16.12 -129.6,30.54 -213.28,49.6 -437.77,91.85 -671.95,127.7 -30.22,4.05 -60.17,7.62 -91.05,11.28l-216.73 23.28c-14.89,1.17 -26.08,2.72 -39.48,4.08l-432.69 18.22c-33.89,-0.64 -58.48,-1.06 -92.4,-1.72 -9.58,-0.19 -18.66,0.01 -27.44,0.4l0.01 -0.01c-182.49,-8.35 -365.78,-27.89 -549.64,-55.68 -158.36,-30.17 -314.94,-62.72 -475.25,-86.93 -49.71,-7.51 -105.07,-17.12 -156.53,-25.85 -14.01,-2.38 -27.35,-4.63 -40.14,-6.74 -181.78,-32.27 -360.32,-69.6 -532.96,-116.18z"/>
 </g>
</svg>
